{
	"asset":{
		"generator":"Khronos glTF Blender I/O v4.2.69",
		"version":"2.0"
	},
	"extensionsUsed":[
		"KHR_materials_specular",
		"KHR_materials_ior"
	],
	"scene":0,
	"scenes":[
		{
			"name":"Scene",
			"nodes":[
				0,
				1,
				2,
				3,
				4,
				5,
				6,
				7
			]
		}
	],
	"nodes":[
		{
			"mesh":0,
			"name":"ground"
		},
		{
			"mesh":1,
			"name":"wallR.001"
		},
		{
			"mesh":2,
			"name":"wallR.002",
			"rotation":[
				0,
				0,
				-1,
				0
			],
			"scale":[
				-1,
				-1,
				-1
			]
		},
		{
			"mesh":3,
			"name":"lame"
		},
		{
			"mesh":4,
			"name":"coffreBack"
		},
		{
			"mesh":5,
			"name":"coulisses"
		},
		{
			"mesh":6,
			"name":"coffreFront"
		},
		{
			"mesh":7,
			"name":"coffreTop"
		}
	],
	"materials":[
		{
			"doubleSided":true,
			"name":"Stone Floor",
			"pbrMetallicRoughness":{
				"baseColorTexture":{
					"index":0,
					"texCoord":1
				},
				"metallicFactor":0,
				"roughnessFactor":0.5
			}
		},
		{
			"doubleSided":true,
			"extensions":{
				"KHR_materials_specular":{
					"specularFactor":0.5
				},
				"KHR_materials_ior":{
					"ior":1.4500000476837158
				}
			},
			"name":"Concrete Wall Panels Material",
			"pbrMetallicRoughness":{
				"baseColorTexture":{
					"index":1,
					"texCoord":1
				},
				"metallicFactor":0,
				"roughnessFactor":0.5
			}
		},
		{
			"doubleSided":true,
			"name":"Green marble",
			"pbrMetallicRoughness":{
				"baseColorTexture":{
					"index":2,
					"texCoord":1
				},
				"metallicFactor":0,
				"roughnessFactor":0.5
			}
		},
		{
			"doubleSided":true,
			"name":"Green marble",
			"pbrMetallicRoughness":{
				"baseColorTexture":{
					"index":2
				},
				"metallicFactor":0,
				"roughnessFactor":0.5
			}
		}
	],
	"meshes":[
		{
			"name":"Cube.001",
			"primitives":[
				{
					"attributes":{
						"POSITION":0,
						"NORMAL":1,
						"TEXCOORD_0":2,
						"TEXCOORD_1":3
					},
					"indices":4,
					"material":0
				}
			]
		},
		{
			"name":"Cube.008",
			"primitives":[
				{
					"attributes":{
						"POSITION":5,
						"NORMAL":6,
						"TEXCOORD_0":7,
						"TEXCOORD_1":8
					},
					"indices":9,
					"material":1
				}
			]
		},
		{
			"name":"Cube.004",
			"primitives":[
				{
					"attributes":{
						"POSITION":10,
						"NORMAL":11,
						"TEXCOORD_0":12,
						"TEXCOORD_1":13
					},
					"indices":9,
					"material":1
				}
			]
		},
		{
			"name":"Plane.005",
			"primitives":[
				{
					"attributes":{
						"POSITION":14,
						"NORMAL":15,
						"TEXCOORD_0":16,
						"TEXCOORD_1":17
					},
					"indices":18,
					"material":2
				}
			]
		},
		{
			"name":"Cube.015",
			"primitives":[
				{
					"attributes":{
						"POSITION":19,
						"NORMAL":20,
						"TEXCOORD_0":21
					},
					"indices":22,
					"material":3
				}
			]
		},
		{
			"name":"Cube.016",
			"primitives":[
				{
					"attributes":{
						"POSITION":23,
						"NORMAL":24,
						"TEXCOORD_0":25
					},
					"indices":26,
					"material":3
				}
			]
		},
		{
			"name":"Cube.017",
			"primitives":[
				{
					"attributes":{
						"POSITION":27,
						"NORMAL":28,
						"TEXCOORD_0":29,
						"TEXCOORD_1":30
					},
					"indices":31,
					"material":2
				}
			]
		},
		{
			"name":"Cube.003",
			"primitives":[
				{
					"attributes":{
						"POSITION":32,
						"NORMAL":33,
						"TEXCOORD_0":34
					},
					"indices":35,
					"material":3
				}
			]
		}
	],
	"textures":[
		{
			"sampler":0,
			"source":0
		},
		{
			"sampler":0,
			"source":1
		},
		{
			"sampler":0,
			"source":2
		}
	],
	"images":[
		{
			"mimeType":"image/jpeg",
			"name":"ground baked",
			"uri":"ground%20baked.jpg"
		},
		{
			"mimeType":"image/jpeg",
			"name":"wallBaked",
			"uri":"wallBaked.jpg"
		},
		{
			"mimeType":"image/jpeg",
			"name":"RideauMetaliqueColor1Baked",
			"uri":"RideauMetaliqueColor1Baked.jpg"
		}
	],
	"accessors":[
		{
			"bufferView":0,
			"componentType":5126,
			"count":975,
			"max":[
				0.5995919704437256,
				0.30910488963127136,
				0.8703813552856445
			],
			"min":[
				-0.6931294202804565,
				0.0027906447649002075,
				-0.8778694272041321
			],
			"type":"VEC3"
		},
		{
			"bufferView":1,
			"componentType":5126,
			"count":975,
			"type":"VEC3"
		},
		{
			"bufferView":2,
			"componentType":5126,
			"count":975,
			"type":"VEC2"
		},
		{
			"bufferView":3,
			"componentType":5126,
			"count":975,
			"type":"VEC2"
		},
		{
			"bufferView":4,
			"componentType":5123,
			"count":2652,
			"type":"SCALAR"
		},
		{
			"bufferView":5,
			"componentType":5126,
			"count":41,
			"max":[
				0.016367584466934204,
				1.0778907537460327,
				0.7409098148345947
			],
			"min":[
				-0.08206653594970703,
				0.016244620084762573,
				-0.001990921562537551
			],
			"type":"VEC3"
		},
		{
			"bufferView":6,
			"componentType":5126,
			"count":41,
			"type":"VEC3"
		},
		{
			"bufferView":7,
			"componentType":5126,
			"count":41,
			"type":"VEC2"
		},
		{
			"bufferView":8,
			"componentType":5126,
			"count":41,
			"type":"VEC2"
		},
		{
			"bufferView":9,
			"componentType":5123,
			"count":78,
			"type":"SCALAR"
		},
		{
			"bufferView":10,
			"componentType":5126,
			"count":41,
			"max":[
				0.016367584466934204,
				1.0778907537460327,
				0.7409098148345947
			],
			"min":[
				-0.08206653594970703,
				0.016244620084762573,
				-0.001990921562537551
			],
			"type":"VEC3"
		},
		{
			"bufferView":11,
			"componentType":5126,
			"count":41,
			"type":"VEC3"
		},
		{
			"bufferView":12,
			"componentType":5126,
			"count":41,
			"type":"VEC2"
		},
		{
			"bufferView":13,
			"componentType":5126,
			"count":41,
			"type":"VEC2"
		},
		{
			"bufferView":14,
			"componentType":5126,
			"count":8534,
			"max":[
				0.0306294746696949,
				0.9227421283721924,
				0.5931628942489624
			],
			"min":[
				0.025243449956178665,
				0.52874755859375,
				-0.5910977721214294
			],
			"type":"VEC3"
		},
		{
			"bufferView":15,
			"componentType":5126,
			"count":8534,
			"type":"VEC3"
		},
		{
			"bufferView":16,
			"componentType":5126,
			"count":8534,
			"type":"VEC2"
		},
		{
			"bufferView":17,
			"componentType":5126,
			"count":8534,
			"type":"VEC2"
		},
		{
			"bufferView":18,
			"componentType":5123,
			"count":14076,
			"type":"SCALAR"
		},
		{
			"bufferView":19,
			"componentType":5126,
			"count":20,
			"max":[
				0.024959366768598557,
				1.0411694049835205,
				0.6030211448669434
			],
			"min":[
				0.01785220205783844,
				0.8990416526794434,
				-0.6029890179634094
			],
			"type":"VEC3"
		},
		{
			"bufferView":20,
			"componentType":5126,
			"count":20,
			"type":"VEC3"
		},
		{
			"bufferView":21,
			"componentType":5126,
			"count":20,
			"type":"VEC2"
		},
		{
			"bufferView":22,
			"componentType":5123,
			"count":30,
			"type":"SCALAR"
		},
		{
			"bufferView":23,
			"componentType":5126,
			"count":32,
			"max":[
				0.03348846733570099,
				0.8989289999008179,
				0.6021162271499634
			],
			"min":[
				0.01811138540506363,
				0.03433820605278015,
				-0.6027843356132507
			],
			"type":"VEC3"
		},
		{
			"bufferView":24,
			"componentType":5126,
			"count":32,
			"type":"VEC3"
		},
		{
			"bufferView":25,
			"componentType":5126,
			"count":32,
			"type":"VEC2"
		},
		{
			"bufferView":26,
			"componentType":5123,
			"count":48,
			"type":"SCALAR"
		},
		{
			"bufferView":27,
			"componentType":5126,
			"count":44,
			"max":[
				0.15938743948936462,
				1.0411694049835205,
				0.6030211448669434
			],
			"min":[
				0.02542213723063469,
				0.8990416526794434,
				-0.602989137172699
			],
			"type":"VEC3"
		},
		{
			"bufferView":28,
			"componentType":5126,
			"count":44,
			"type":"VEC3"
		},
		{
			"bufferView":29,
			"componentType":5126,
			"count":44,
			"type":"VEC2"
		},
		{
			"bufferView":30,
			"componentType":5126,
			"count":44,
			"type":"VEC2"
		},
		{
			"bufferView":31,
			"componentType":5123,
			"count":66,
			"type":"SCALAR"
		},
		{
			"bufferView":32,
			"componentType":5126,
			"count":12,
			"max":[
				0.15938743948936462,
				1.0411694049835205,
				0.6030211448669434
			],
			"min":[
				0.02542213723063469,
				1.0361443758010864,
				-0.602989137172699
			],
			"type":"VEC3"
		},
		{
			"bufferView":33,
			"componentType":5126,
			"count":12,
			"type":"VEC3"
		},
		{
			"bufferView":34,
			"componentType":5126,
			"count":12,
			"type":"VEC2"
		},
		{
			"bufferView":35,
			"componentType":5123,
			"count":18,
			"type":"SCALAR"
		}
	],
	"bufferViews":[
		{
			"buffer":0,
			"byteLength":11700,
			"byteOffset":0,
			"target":34962
		},
		{
			"buffer":0,
			"byteLength":11700,
			"byteOffset":11700,
			"target":34962
		},
		{
			"buffer":0,
			"byteLength":7800,
			"byteOffset":23400,
			"target":34962
		},
		{
			"buffer":0,
			"byteLength":7800,
			"byteOffset":31200,
			"target":34962
		},
		{
			"buffer":0,
			"byteLength":5304,
			"byteOffset":39000,
			"target":34963
		},
		{
			"buffer":0,
			"byteLength":492,
			"byteOffset":44304,
			"target":34962
		},
		{
			"buffer":0,
			"byteLength":492,
			"byteOffset":44796,
			"target":34962
		},
		{
			"buffer":0,
			"byteLength":328,
			"byteOffset":45288,
			"target":34962
		},
		{
			"buffer":0,
			"byteLength":328,
			"byteOffset":45616,
			"target":34962
		},
		{
			"buffer":0,
			"byteLength":156,
			"byteOffset":45944,
			"target":34963
		},
		{
			"buffer":0,
			"byteLength":492,
			"byteOffset":46100,
			"target":34962
		},
		{
			"buffer":0,
			"byteLength":492,
			"byteOffset":46592,
			"target":34962
		},
		{
			"buffer":0,
			"byteLength":328,
			"byteOffset":47084,
			"target":34962
		},
		{
			"buffer":0,
			"byteLength":328,
			"byteOffset":47412,
			"target":34962
		},
		{
			"buffer":0,
			"byteLength":102408,
			"byteOffset":47740,
			"target":34962
		},
		{
			"buffer":0,
			"byteLength":102408,
			"byteOffset":150148,
			"target":34962
		},
		{
			"buffer":0,
			"byteLength":68272,
			"byteOffset":252556,
			"target":34962
		},
		{
			"buffer":0,
			"byteLength":68272,
			"byteOffset":320828,
			"target":34962
		},
		{
			"buffer":0,
			"byteLength":28152,
			"byteOffset":389100,
			"target":34963
		},
		{
			"buffer":0,
			"byteLength":240,
			"byteOffset":417252,
			"target":34962
		},
		{
			"buffer":0,
			"byteLength":240,
			"byteOffset":417492,
			"target":34962
		},
		{
			"buffer":0,
			"byteLength":160,
			"byteOffset":417732,
			"target":34962
		},
		{
			"buffer":0,
			"byteLength":60,
			"byteOffset":417892,
			"target":34963
		},
		{
			"buffer":0,
			"byteLength":384,
			"byteOffset":417952,
			"target":34962
		},
		{
			"buffer":0,
			"byteLength":384,
			"byteOffset":418336,
			"target":34962
		},
		{
			"buffer":0,
			"byteLength":256,
			"byteOffset":418720,
			"target":34962
		},
		{
			"buffer":0,
			"byteLength":96,
			"byteOffset":418976,
			"target":34963
		},
		{
			"buffer":0,
			"byteLength":528,
			"byteOffset":419072,
			"target":34962
		},
		{
			"buffer":0,
			"byteLength":528,
			"byteOffset":419600,
			"target":34962
		},
		{
			"buffer":0,
			"byteLength":352,
			"byteOffset":420128,
			"target":34962
		},
		{
			"buffer":0,
			"byteLength":352,
			"byteOffset":420480,
			"target":34962
		},
		{
			"buffer":0,
			"byteLength":132,
			"byteOffset":420832,
			"target":34963
		},
		{
			"buffer":0,
			"byteLength":144,
			"byteOffset":420964,
			"target":34962
		},
		{
			"buffer":0,
			"byteLength":144,
			"byteOffset":421108,
			"target":34962
		},
		{
			"buffer":0,
			"byteLength":96,
			"byteOffset":421252,
			"target":34962
		},
		{
			"buffer":0,
			"byteLength":36,
			"byteOffset":421348,
			"target":34963
		}
	],
	"samplers":[
		{
			"magFilter":9729,
			"minFilter":9987
		}
	],
	"buffers":[
		{
			"byteLength":421384,
			"uri":"Model.bin"
		}
	]
}
